<?xml version="1.0" standalone="no"?>
<!DOCTYPE svg PUBLIC "-//W3C//DTD SVG 20010904//EN"
 "http://www.w3.org/TR/2001/REC-SVG-20010904/DTD/svg10.dtd">
<svg version="1.0" xmlns="http://www.w3.org/2000/svg"
 width="546.000000pt" height="446.000000pt" viewBox="0 0 546.000000 446.000000"
 preserveAspectRatio="xMidYMid meet">

<g transform="translate(0.000000,446.000000) scale(0.100000,-0.100000)"
fill="#179138" stroke="none">
<path d="M2533 4171 l-62 -36 -1 -81 0 -82 61 -36 c33 -20 65 -36 70 -36 6 0
39 17 75 37 l65 38 -3 79 -3 80 -65 38 c-36 21 -67 37 -70 37 -3 -1 -33 -17
-67 -38z"/>
<path d="M2874 3710 c-396 -42 -779 -244 -1030 -543 -178 -212 -286 -434 -346
-710 -32 -150 -32 -435 0 -594 42 -211 121 -400 243 -583 85 -128 291 -334
419 -419 296 -195 637 -285 986 -260 743 54 1348 634 1435 1374 16 134 6 373
-20 493 -47 213 -137 420 -259 592 -84 119 -250 286 -365 367 -311 219 -697
321 -1063 283z m383 -686 c265 -66 497 -266 603 -520 115 -277 84 -602 -81
-846 -240 -355 -680 -491 -1083 -336 -107 42 -241 133 -323 222 -410 445 -279
1148 264 1420 186 93 404 114 620 60z"/>
<path d="M2840 2909 c-276 -72 -483 -277 -562 -556 -28 -100 -30 -274 -5 -378
40 -163 153 -335 285 -435 137 -104 262 -148 442 -157 96 -4 130 -2 205 16
255 61 460 240 552 481 69 181 69 369 -1 554 -89 237 -306 424 -553 480 -101
22 -267 20 -363 -5z m22 -76 c22 -26 63 -147 55 -166 -3 -9 -17 -23 -30 -32
-42 -27 -71 -7 -101 72 -30 80 -31 91 -10 121 19 27 65 29 86 5z m420 0 c24
-21 23 -48 -6 -124 -33 -88 -85 -111 -123 -53 -13 21 -13 29 6 87 12 34 28 73
37 85 18 26 60 29 86 5z m-705 -289 c86 -48 102 -95 45 -132 -23 -15 -27 -14
-79 13 -79 41 -103 63 -103 92 0 32 26 63 53 63 11 0 49 -16 84 -36z m1025 19
c18 -16 24 -59 10 -79 -4 -6 -98 -63 -208 -128 l-201 -116 -5 -50 c-16 -163
-244 -204 -319 -57 -42 81 -8 191 71 232 38 20 121 19 162 -1 l33 -16 200 116
c110 64 209 116 219 116 11 0 28 -7 38 -17z m-1016 -409 c35 -53 -9 -91 -117
-100 -83 -7 -101 2 -101 52 0 39 24 56 99 69 81 13 99 10 119 -21z m1096 -14
c23 -28 23 -42 0 -70 -21 -26 -50 -28 -136 -10 -64 13 -78 27 -74 72 5 48 31
58 120 43 53 -9 77 -19 90 -35z m-377 -211 c78 -22 135 -113 119 -194 -10 -53
-44 -97 -94 -123 -44 -22 -51 -23 -310 -20 -257 3 -266 4 -302 26 -53 33 -78
78 -78 142 0 86 42 147 118 170 42 13 501 12 547 -1z"/>
<path d="M2991 2241 c-16 -29 -14 -46 9 -66 41 -37 102 17 73 64 -16 25 -69
26 -82 2z"/>
<path d="M2782 1804 c-27 -18 -29 -55 -4 -77 16 -15 49 -17 253 -17 268 0 275
2 270 71 -2 33 -47 39 -274 39 -185 0 -226 -3 -245 -16z"/>
<path d="M4711 3652 l-111 -65 0 -127 0 -127 110 -63 c84 -48 115 -61 129 -54
10 5 61 34 114 64 l97 55 0 125 0 125 -114 66 -113 66 -112 -65z m166 -107
l43 -26 0 -59 0 -59 -46 -27 -47 -28 -53 28 -54 28 0 58 c0 58 0 59 43 83 54
32 62 32 114 2z"/>
<path d="M1052 2799 c-80 -40 -121 -145 -93 -232 18 -55 89 -114 146 -123 204
-30 307 230 137 346 -49 34 -133 38 -190 9z m137 -125 c12 -15 21 -35 21 -46
0 -24 -44 -68 -68 -68 -33 0 -72 38 -72 71 0 65 80 93 119 43z"/>
<path d="M798 1697 l-147 -82 -1 -166 0 -167 146 -82 145 -82 150 84 149 83
-2 164 -3 164 -105 59 c-58 33 -123 70 -145 83 l-40 23 -147 -81z m213 -139
l59 -33 0 -77 0 -76 -62 -35 -63 -35 -68 36 -67 37 2 74 3 74 60 33 c33 19 64
34 68 34 5 0 35 -15 68 -32z"/>
<path d="M4583 946 c-89 -29 -171 -113 -194 -200 -26 -97 13 -232 84 -292 63
-53 107 -69 192 -69 67 0 88 5 131 27 170 89 211 307 85 451 -67 76 -204 114
-298 83z m172 -135 c50 -29 75 -76 75 -141 0 -71 -27 -116 -90 -147 -56 -29
-96 -29 -150 0 -75 40 -109 133 -76 210 17 40 64 85 102 97 38 12 101 3 139
-19z"/>
<path d="M1802 639 c-110 -56 -142 -198 -65 -289 88 -106 257 -87 320 35 23
44 21 122 -5 172 -47 90 -162 127 -250 82z m128 -119 c28 -28 27 -84 -2 -104
-49 -35 -108 -7 -108 50 0 41 29 74 65 74 14 0 34 -9 45 -20z"/>
</g>
</svg>
